<svg xmlns="http://www.w3.org/2000/svg" width="537.60" height="221.00" viewBox="0 0 537.60 221.00" font-family="ui-monospace, SFMono-Regular, Menlo, Consolas, monospace" font-size="13.5">
<rect width="100%" height="100%" fill="#121314"/>
<text x="0.00" y="13.00" fill="#cccccc" textLength="537.60" lengthAdjust="spacingAndGlyphs">╭────────────────╮┏━━━━━━━━━━━━━━━━━━━━━━━━━━━━━━━━━━━━━━━━━━━━┓</text>
<text x="0.00" y="30.00" fill="#cccccc" textLength="16.80" lengthAdjust="spacingAndGlyphs">│┌</text>
<text x="25.20" y="30.00" fill="#cccccc" textLength="58.80" lengthAdjust="spacingAndGlyphs">rounded</text>
<text x="92.40" y="30.00" fill="#cccccc" textLength="75.60" lengthAdjust="spacingAndGlyphs">─────┐│┃┌</text>
<text x="176.40" y="30.00" fill="#cccccc" textLength="42.00" lengthAdjust="spacingAndGlyphs">thick</text>
<text x="226.80" y="30.00" fill="#cccccc" textLength="310.80" lengthAdjust="spacingAndGlyphs">───────────────────────────────────┐┃</text>
<text x="0.00" y="47.00" fill="#cccccc" textLength="537.60" lengthAdjust="spacingAndGlyphs">│└──────────────┘│┃└──────────────────────────────────────────┘┃</text>
<text x="0.00" y="64.00" fill="#cccccc" textLength="537.60" lengthAdjust="spacingAndGlyphs">╰────────────────╯┗━━━━━━━━━━━━━━━━━━━━━━━━━━━━━━━━━━━━━━━━━━━━┛</text>
<text x="0.00" y="81.00" fill="#cccccc" textLength="537.60" lengthAdjust="spacingAndGlyphs">┌───────────────────┐╔═════════════════════════════════════════╗</text>
<text x="0.00" y="98.00" fill="#cccccc" textLength="16.80" lengthAdjust="spacingAndGlyphs">│┌</text>
<text x="25.20" y="98.00" fill="#cccccc" textLength="50.40" lengthAdjust="spacingAndGlyphs">single</text>
<text x="84.00" y="98.00" fill="#cccccc" textLength="109.20" lengthAdjust="spacingAndGlyphs">─────────┐│║┌</text>
<text x="201.60" y="98.00" fill="#cccccc" textLength="50.40" lengthAdjust="spacingAndGlyphs">double</text>
<text x="260.40" y="98.00" fill="#cccccc" textLength="277.20" lengthAdjust="spacingAndGlyphs">───────────────────────────────┐║</text>
<text x="0.00" y="115.00" fill="#cccccc" textLength="537.60" lengthAdjust="spacingAndGlyphs">│└─────────────────┘│║└───────────────────────────────────────┘║</text>
<text x="0.00" y="132.00" fill="#cccccc" textLength="537.60" lengthAdjust="spacingAndGlyphs">└───────────────────┘╚═════════════════════════════════════════╝</text>
<text x="0.00" y="149.00" fill="#cccccc" textLength="8.40" lengthAdjust="spacingAndGlyphs">┌</text>
<text x="16.80" y="149.00" fill="#cccccc" textLength="33.60" lengthAdjust="spacingAndGlyphs">left</text>
<text x="58.80" y="149.00" fill="#cccccc" textLength="75.60" lengthAdjust="spacingAndGlyphs">────────┬</text>
<text x="142.80" y="149.00" fill="#cccccc" textLength="42.00" lengthAdjust="spacingAndGlyphs">right</text>
<text x="193.20" y="149.00" fill="#cccccc" textLength="75.60" lengthAdjust="spacingAndGlyphs">────────┐</text>
<rect x="268.80" y="136.00" width="134.40" height="8.50" fill="#cccccc"/>
<rect x="268.80" y="144.50" width="4.20" height="8.50" fill="#cccccc"/>
<rect x="399.00" y="144.50" width="4.20" height="8.50" fill="#cccccc"/>
<rect x="407.40" y="144.50" width="126.00" height="8.50" fill="#cccccc"/>
<text x="0.00" y="166.00" fill="#cccccc" textLength="8.40" lengthAdjust="spacingAndGlyphs">│</text>
<text x="16.80" y="166.00" fill="#cccccc" textLength="16.80" lengthAdjust="spacingAndGlyphs">-1</text>
<text x="126.00" y="166.00" fill="#cccccc" textLength="8.40" lengthAdjust="spacingAndGlyphs">│</text>
<text x="142.80" y="166.00" fill="#cccccc" textLength="50.40" lengthAdjust="spacingAndGlyphs">shared</text>
<text x="260.40" y="166.00" fill="#cccccc" textLength="8.40" lengthAdjust="spacingAndGlyphs">│</text>
<rect x="268.80" y="153.00" width="4.20" height="17.00" fill="#cccccc"/>
<text x="285.60" y="166.00" fill="#cccccc" textLength="33.60" lengthAdjust="spacingAndGlyphs">quad</text>
<text x="327.60" y="166.00" fill="#cccccc" textLength="25.20" lengthAdjust="spacingAndGlyphs">out</text>
<rect x="399.00" y="153.00" width="4.20" height="17.00" fill="#cccccc"/>
<rect x="407.40" y="153.00" width="4.20" height="17.00" fill="#cccccc"/>
<text x="420.00" y="166.00" fill="#cccccc" textLength="33.60" lengthAdjust="spacingAndGlyphs">quad</text>
<text x="462.00" y="166.00" fill="#cccccc" textLength="16.80" lengthAdjust="spacingAndGlyphs">in</text>
<rect x="529.20" y="153.00" width="4.20" height="17.00" fill="#cccccc"/>
<text x="0.00" y="183.00" fill="#cccccc" textLength="8.40" lengthAdjust="spacingAndGlyphs">│</text>
<text x="126.00" y="183.00" fill="#cccccc" textLength="8.40" lengthAdjust="spacingAndGlyphs">│</text>
<text x="260.40" y="183.00" fill="#cccccc" textLength="8.40" lengthAdjust="spacingAndGlyphs">│</text>
<rect x="268.80" y="170.00" width="4.20" height="17.00" fill="#cccccc"/>
<rect x="399.00" y="170.00" width="4.20" height="17.00" fill="#cccccc"/>
<rect x="407.40" y="170.00" width="4.20" height="17.00" fill="#cccccc"/>
<rect x="529.20" y="170.00" width="4.20" height="17.00" fill="#cccccc"/>
<text x="0.00" y="200.00" fill="#cccccc" textLength="268.80" lengthAdjust="spacingAndGlyphs">└──────────────┴───────────────┘</text>
<rect x="268.80" y="187.00" width="4.20" height="8.50" fill="#cccccc"/>
<rect x="399.00" y="187.00" width="4.20" height="8.50" fill="#cccccc"/>
<rect x="407.40" y="187.00" width="126.00" height="8.50" fill="#cccccc"/>
<rect x="268.80" y="195.50" width="134.40" height="8.50" fill="#cccccc"/>
</svg>
